<svg id="Layer_1" data-name="Layer 1" xmlns="http://www.w3.org/2000/svg" viewBox="0 0 61.45 61.48"><defs><style>.cls-1{fill:#fff;}</style></defs><path class="cls-1" d="M578.23,1226a30.74,30.74,0,1,1-30.73,30.62A30.7,30.7,0,0,1,578.23,1226Zm-.08,59A28.25,28.25,0,1,0,550,1255.9,28.23,28.23,0,0,0,578.15,1285Z" transform="translate(-547.5 -1226)"/><path class="cls-1" d="M569.48,1250.43c0,3.58,0,7.16,0,10.74a.65.65,0,0,0,.51.74,4.12,4.12,0,0,1-.08,7.72c-.36.12-.43.29-.43.63,0,1.22,0,2.44,0,3.67,0,.68-.13.79-.81.8h-.44c-.63,0-.76-.13-.76-.78,0-1.23,0-2.45,0-3.68a.55.55,0,0,0-.42-.64,4.11,4.11,0,0,1-2.72-3.91,4.05,4.05,0,0,1,2.73-3.85c.44-.15.41-.42.41-.75v-21.33a1.06,1.06,0,0,1,1.68-1,1.09,1.09,0,0,1,.32.8c0,2.12,0,4.24,0,6.36Z" transform="translate(-547.5 -1226)"/><path class="cls-1" d="M579.25,1243.71a4.18,4.18,0,0,1,3,3.09,4.07,4.07,0,0,1-2.52,4.78.66.66,0,0,0-.51.74q0,10.76,0,21.5c0,.29-.16.8-.31.82a4.74,4.74,0,0,1-1.5-.05c-.08,0-.16-.26-.19-.42a3.23,3.23,0,0,1,0-.54q0-10.62,0-21.23a.74.74,0,0,0-.55-.84,4.1,4.1,0,0,1,.13-7.68.57.57,0,0,0,.42-.64c0-1.23,0-2.45,0-3.68,0-.69.15-.82.85-.83h.33c.69,0,.84.15.84.83v4.15Z" transform="translate(-547.5 -1226)"/><path class="cls-1" d="M589,1252.71a4.16,4.16,0,0,1,3,3,4.08,4.08,0,0,1-2.51,4.84.68.68,0,0,0-.51.79q0,6.22,0,12.45c0,.28-.17.79-.32.81a4,4,0,0,1-1.49-.07c-.1,0-.18-.45-.18-.68q0-4.07,0-8.12c0-1.52,0-3,0-4.55a.52.52,0,0,0-.41-.59,4.12,4.12,0,0,1,0-7.77c.39-.14.38-.38.38-.68q0-6.23,0-12.45c0-.31.13-.84.29-.89a3.19,3.19,0,0,1,1.44,0c.13,0,.25.49.25.76,0,3.18,0,6.36,0,9.54Z" transform="translate(-547.5 -1226)"/></svg>