<svg id="Layer_1" data-name="Layer 1" xmlns="http://www.w3.org/2000/svg" viewBox="0 0 351.08 278"><path d="M465.26,152c5.78,1.66,11.58,3.2,17.31,5,18.54,5.81,37,11.79,55.58,17.53,4.58,1.42,6.36,4.5,6.61,8.86.23,4,.4,8,.43,12,.07,9.67,0,19.34,0,29,0,.46-.06.92-.11,1.69-1.61-1.31-3-2.52-4.45-3.59-4.58-3.34-9.21-6.59-13.77-10a2.88,2.88,0,0,1-1-2c-.21-6.32-.32-12.65-.41-19,0-1-.24-1.59-1.33-1.92-17.58-5.29-35.13-10.65-52.71-16-2.82-.85-3-.79-3.13,2.2-.2,4.77-.17,9.55-.21,14.32,0,3.41,0,6.81,0,10.21,0,1.1-.3,1.61-1.41,1.83a39.3,39.3,0,0,0-3.95,1.11,1.46,1.46,0,0,1-2.12-1.23,18,18,0,0,1-.37-3c-.14-7.29-.23-14.57-.38-21.85,0-1.35-.27-2.7-.44-4.33-4.19,1.24-8.12,2.38-12,3.57-16.31,5-32.6,10-48.93,14.87-1.63.49-1.4,1.48-1.4,2.57q0,74.79.06,149.57c0,19.94.27,39.88.44,59.82,0,1.42.2,2.84.32,4.48a18.11,18.11,0,0,0,1.85-.33q29.67-9,59.36-18c1.11-.34,1.26-.94,1.24-1.95-.08-5-.17-10-.09-15,.05-2.91.4-3.07,3.24-2.37,1.49.37,3,.78,4.59,1.21,0,5.27.07,10.45,0,15.64,0,1.57.4,2.27,2,2.73q26.61,8,53.18,16.21c.56.17,1.14.26,2.26.5.12-4.68.29-9.18.35-13.68s0-9,0-13.9c.52.46.83.69,1.09,1,5.64,5.85,11.24,11.73,16.92,17.53a4.74,4.74,0,0,1,1.48,3.79c-.21,6.49-.08,13-.52,19.49-.43,6.16-5,9.49-10.94,8.05-7.47-1.8-14.87-3.89-22.23-6.11-15.23-4.6-30.41-9.38-45.63-14a5.24,5.24,0,0,0-2.91-.08q-34,10.38-68,20.87a11.18,11.18,0,0,0-1.41.65h-1.07a14.64,14.64,0,0,0-1.58-.7Q357.6,419,324.24,408.66a6.86,6.86,0,0,0-4.32,0c-18.32,5.65-36.64,11.31-55,16.82a110.48,110.48,0,0,1-14.76,3.45c-4.59.7-7.73-2.11-8-6.73-.41-6.06-.56-12.15-.84-18.22-.07-1.48-.18-3-.27-4.44V204.66c.08-.82.2-1.64.23-2.47.29-6.84.54-13.69.85-20.54.14-3.35,1.55-5.83,5-6.75.63-.17,1.22-.48,1.84-.68,18.16-5.74,36.31-11.52,54.49-17.18,5.9-1.83,11.88-3.37,17.83-5h1.07c1.6.43,3.21.82,4.79,1.29q32.1,9.61,64.19,19.21a6.56,6.56,0,0,0,3.57,0c18.09-5.42,36.14-10.94,54.22-16.4,4.77-1.44,9.59-2.74,14.38-4.11Zm-77.1,256a20.12,20.12,0,0,0,.41-2.29c.14-3,.34-6,.34-8.95q.15-87.75.22-175.49c0-9-.35-18-.5-27a3,3,0,0,0-2.47-3.27c-16.09-4.83-32.14-9.8-48.2-14.74-3.91-1.21-7.8-2.46-11.95-3.76V371c0,5.55,0,11.11,0,16.66a1.62,1.62,0,0,0,1.36,1.88q28.38,8.65,56.74,17.38C385.38,407.34,386.7,407.61,388.16,408Zm-71.51-234.8c-1.27.35-2.31.59-3.32.9-16.7,5.11-33.38,10.25-50.1,15.28-1.89.57-2.38,1.42-2.38,3.33q0,79.26-.19,158.5c0,17.37.25,34.74.4,52.12,0,1,.17,2,.27,3.08.92-.22,1.62-.36,2.29-.56,17.15-5.24,34.29-10.51,51.46-15.69a2.34,2.34,0,0,0,2-2.69q.06-79.53.22-159c0-17.13-.23-34.27-.37-51.4C316.93,175.77,316.76,174.54,316.65,173.17Z" transform="translate(-241 -152)"/><path d="M592.08,373.4c-3.22,3.65-6.36,7.38-9.69,10.94-2.69,2.87-5.52,5.62-8.45,8.25-3.53,3.16-5.23,3.25-8.63,0-8.84-8.45-17.55-17-26.25-25.64-3-3-5.85-6.14-8.72-9.26a26.29,26.29,0,0,1-2.14-2.86,4,4,0,0,1,0-5.13c1.27-1.62.88-2.86-.49-4.19s-2.46-2.75-3.7-4.17c-1.38.91-2.31,1.54-3.25,2.14-22.62,14.56-46.06,15.26-69.59,3-19.46-10.18-31.12-26.66-34.89-48.41-6.45-37.16,19.17-73.1,56.51-78.88,27.34-4.24,60.33,8.44,74.13,42.36,2.71,6.67,4.42,13.45,4.06,20.71-.3,6.13.17,12.37-.81,18.38-1.42,8.79-5.6,16.66-10.3,24.19-.48.75-1,1.47-1.63,2.35,1.66,1.7,3.28,3.44,5,5.07a1.56,1.56,0,0,0,1.51.07c4.1-2.71,7.31-1.74,10.66,1.67,10.37,10.55,21,20.85,31.46,31.33a77.81,77.81,0,0,1,5.19,6.34ZM483.47,334.47c26.76.14,47.87-22.72,47.89-47.44,0-25.42-20.47-48-47.67-48.26-28.59-.23-48.16,24.58-48.14,47.81C435.58,310.73,456,334.52,483.47,334.47Z" transform="translate(-241 -152)"/></svg>